<?xml version="1.0" standalone="no"?>
 <!DOCTYPE svg PUBLIC "-//W3C//DTD SVG 1.1//EN" 
 "http://www.w3.org/Graphics/SVG/1.1/DTD/svg11.dtd"> 
<svg
  xmlns:svg="http://www.w3.org/2000/svg"
  xmlns="http://www.w3.org/2000/svg"
  xmlns:xlink="http://www.w3.org/1999/xlink"
  version="1.1"
  width="3.182620cm" height="2.547620cm" viewBox="0 0 31826200 25476200">
<title>SVG Picture created as revisedXOR2-brd.svg date 2022/12/11 17:24:59 </title>
  <desc>Picture generated by PCBNEW </desc>
<g style="fill:#000000; fill-opacity:1.000000;stroke:#000000; stroke-opacity:1.000000;
stroke-linecap:round; stroke-linejoin:round;"
 transform="translate(0 0) scale(1 1)">
</g>
<g style="fill:#000000; fill-opacity:0.0; 
stroke:#000000; stroke-width:0.000000; stroke-opacity:1; 
stroke-linecap:round; stroke-linejoin:round;">
</g>
<g style="fill:#000000; fill-opacity:0.0; 
stroke:#000000; stroke-width:105833.000000; stroke-opacity:1; 
stroke-linecap:round; stroke-linejoin:round;">
<path d="M1938221 22793130
L1938221 24116047
" />
<path d="M2467387 20748542
L2467387 19353547
" />
<path d="M1409054 20696875
L1409054 19353547
" />
</g>
<g style="fill:#000000; fill-opacity:0.0; 
stroke:#000000; stroke-width:6000.000000; stroke-opacity:1; 
stroke-linecap:round; stroke-linejoin:round;">
</g>
<g style="fill:#000000; fill-opacity:1.0; 
stroke:#000000; stroke-width:6000.000000; stroke-opacity:1; 
stroke-linecap:round; stroke-linejoin:round;">
<path style="fill:#000000; fill-opacity:1.0; 
stroke:#000000; stroke-width:6000.000000; stroke-opacity:1; 
stroke-linecap:round; stroke-linejoin:round;fill-rule:evenodd;"
d="M 879887.000000,20253131.000000
915622.000000,20282987.000000
933169.000000,20297329.000000
951201.000000,20311525.000000
970240.000000,20325760.000000
980301.000000,20332950.000000
990811.000000,20340218.000000
1001834.000000,20347589.000000
1013435.000000,20355083.000000
1025681.000000,20362726.000000
1038637.000000,20370539.000000
1107081.000000,20409863.000000
1146411.000000,20430687.000000
1189065.000000,20451879.000000
1234984.000000,20473132.000000
1284106.000000,20494142.000000
1336371.000000,20514601.000000
1391720.000000,20534205.000000
1450090.000000,20552648.000000
1511422.000000,20569623.000000
1575655.000000,20584826.000000
1642729.000000,20597950.000000
1712583.000000,20608690.000000
1785156.000000,20616740.000000
1860389.000000,20621795.000000
1938221.000000,20623547.000000
2015842.000000,20621802.000000
2090895.000000,20616769.000000
2163318.000000,20608755.000000
2233051.000000,20598064.000000
2300032.000000,20585003.000000
2364202.000000,20569876.000000
2425497.000000,20552988.000000
2483859.000000,20534647.000000
2539225.000000,20515155.000000
2591535.000000,20494821.000000
2640728.000000,20473947.000000
2686743.000000,20452841.000000
2768996.000000,20411150.000000
2837804.000000,20372193.000000
2862647.000000,20356926.000000
2884801.000000,20342808.000000
2904417.000000,20329817.000000
2921643.000000,20317930.000000
2936630.000000,20307123.000000
2949527.000000,20297375.000000
2960485.000000,20288663.000000
2969654.000000,20280964.000000
2983221.000000,20268515.000000
2991427.000000,20259847.000000
2996554.000000,20253131.000000
2996554.000000,20059654.000000
2867570.000000,20165487.000000
2850561.000000,20178348.000000
2829701.000000,20193109.000000
2800958.000000,20212255.000000
2764600.000000,20234907.000000
2720892.000000,20260191.000000
2670101.000000,20287228.000000
2612494.000000,20315142.000000
2548336.000000,20343056.000000
2513885.000000,20356740.000000
2477896.000000,20370094.000000
2440402.000000,20383010.000000
2401438.000000,20395377.000000
2361036.000000,20407087.000000
2319230.000000,20418030.000000
2276052.000000,20428096.000000
2231537.000000,20437175.000000
2185718.000000,20445159.000000
2138628.000000,20451936.000000
2090299.000000,20457399.000000
2040766.000000,20461436.000000
1990062.000000,20463939.000000
1938221.000000,20464797.000000
1835675.000000,20461436.000000
1737814.000000,20451936.000000
1644904.000000,20437175.000000
1557211.000000,20418030.000000
1475003.000000,20395377.000000
1398545.000000,20370094.000000
1328105.000000,20343056.000000
1263948.000000,20315142.000000
1206340.000000,20287228.000000
1155549.000000,20260191.000000
1075483.000000,20212255.000000
1008872.000000,20165487.000000
879887.000000,20059654.000000
Z" /> 
<path style="fill:#000000; fill-opacity:1.0; 
stroke:#000000; stroke-width:6000.000000; stroke-opacity:1; 
stroke-linecap:round; stroke-linejoin:round;fill-rule:evenodd;"
d="M 1008872.000000,20469758.000000
879887.000000,20363925.000000
879887.000000,21271776.000000
882348.000000,21392878.000000
887591.000000,21471434.000000
897434.000000,21560192.000000
913322.000000,21657799.000000
936700.000000,21762902.000000
969012.000000,21874150.000000
1011703.000000,21990189.000000
1066216.000000,22109668.000000
1098358.000000,22170274.000000
1133997.000000,22231233.000000
1173314.000000,22292376.000000
1216490.000000,22353534.000000
1263705.000000,22414537.000000
1315139.000000,22475217.000000
1370974.000000,22535405.000000
1431389.000000,22594931.000000
1496565.000000,22653626.000000
1566684.000000,22711322.000000
1641924.000000,22767850.000000
1722468.000000,22823039.000000
1808495.000000,22876722.000000
1900187.000000,22928730.000000
1938221.000000,22859276.000000
1976254.000000,22928730.000000
2067990.000000,22876750.000000
2154163.000000,22823136.000000
2234938.000000,22768052.000000
2310481.000000,22711661.000000
2380958.000000,22654127.000000
2446534.000000,22595615.000000
2507376.000000,22536289.000000
2563649.000000,22476312.000000
2615518.000000,22415848.000000
2663149.000000,22355063.000000
2706709.000000,22294119.000000
2746361.000000,22233181.000000
2782274.000000,22172412.000000
2814611.000000,22111978.000000
2843539.000000,22052041.000000
2869223.000000,21992766.000000
2891850.000000,21934311.000000
2911625.000000,21876838.000000
2928738.000000,21820521.000000
2943383.000000,21765530.000000
2955752.000000,21712038.000000
2966037.000000,21660218.000000
2974430.000000,21610240.000000
2981124.000000,21562278.000000
2986310.000000,21516503.000000
2990181.000000,21473087.000000
2994747.000000,21394023.000000
2996358.000000,21326460.000000
2996554.000000,21271776.000000
2837804.000000,21271776.000000
2837595.000000,21324581.000000
2836054.000000,21386930.000000
2831810.000000,21458083.000000
2823492.000000,21537301.000000
2817376.000000,21579702.000000
2809727.000000,21623842.000000
2800375.000000,21669628.000000
2789146.000000,21716967.000000
2775871.000000,21765767.000000
2760377.000000,21815935.000000
2742494.000000,21867378.000000
2722049.000000,21920006.000000
2699584.000000,21971900.000000
2674324.000000,22024365.000000
2646109.000000,22077281.000000
2614781.000000,22130530.000000
2580180.000000,22183990.000000
2542149.000000,22237542.000000
2500529.000000,22291066.000000
2455160.000000,22344444.000000
2405884.000000,22397554.000000
2352542.000000,22450277.000000
2294976.000000,22502494.000000
2233026.000000,22554085.000000
2166535.000000,22604929.000000
2095343.000000,22654908.000000
2019291.000000,22703901.000000
1938221.000000,22751789.000000
1855887.000000,22703171.000000
1778736.000000,22653461.000000
1706600.000000,22602785.000000
1639310.000000,22551266.000000
1576698.000000,22499029.000000
1518595.000000,22446198.000000
1464832.000000,22392898.000000
1415242.000000,22339253.000000
1369656.000000,22285388.000000
1327905.000000,22231427.000000
1289821.000000,22177494.000000
1255234.000000,22123714.000000
1223978.000000,22070211.000000
1195883.000000,22017109.000000
1170780.000000,21964534.000000
1148502.000000,21912609.000000
1128879.000000,21861459.000000
1111743.000000,21811208.000000
1084260.000000,21713901.000000
1064703.000000,21621684.000000
1051724.000000,21535552.000000
1043977.000000,21456500.000000
1040112.000000,21385523.000000
1038637.000000,21271776.000000
1038637.000000,20674810.000000
1107081.000000,20714134.000000
1189065.000000,20756150.000000
1234984.000000,20777403.000000
1284106.000000,20798412.000000
1336371.000000,20818872.000000
1391720.000000,20838476.000000
1450090.000000,20856919.000000
1511422.000000,20873894.000000
1575655.000000,20889097.000000
1642729.000000,20902221.000000
1712583.000000,20912961.000000
1785156.000000,20921011.000000
1860389.000000,20926065.000000
1938221.000000,20927818.000000
2015849.000000,20926084.000000
2090921.000000,20921084.000000
2163373.000000,20913118.000000
2233141.000000,20902486.000000
2300162.000000,20889490.000000
2364371.000000,20874430.000000
2425705.000000,20857606.000000
2484100.000000,20839320.000000
2539492.000000,20819872.000000
2591818.000000,20799563.000000
2641013.000000,20778694.000000
2687015.000000,20757564.000000
2729758.000000,20736476.000000
2769180.000000,20715729.000000
2837804.000000,20676464.000000
2837804.000000,21271776.000000
2996554.000000,21271776.000000
2996554.000000,20363925.000000
2867570.000000,20469758.000000
2800958.000000,20516525.000000
2720892.000000,20564462.000000
2670101.000000,20591499.000000
2612494.000000,20619413.000000
2548336.000000,20647327.000000
2477896.000000,20674365.000000
2401438.000000,20699648.000000
2319230.000000,20722301.000000
2231537.000000,20741446.000000
2138628.000000,20756207.000000
2040766.000000,20765707.000000
1938221.000000,20769068.000000
1886379.000000,20768209.000000
1835675.000000,20765707.000000
1786142.000000,20761669.000000
1737814.000000,20756207.000000
1690723.000000,20749430.000000
1644904.000000,20741446.000000
1600389.000000,20732367.000000
1557211.000000,20722301.000000
1515405.000000,20711358.000000
1475003.000000,20699648.000000
1436039.000000,20687280.000000
1398545.000000,20674365.000000
1362556.000000,20661010.000000
1328105.000000,20647327.000000
1263948.000000,20619413.000000
1206340.000000,20591499.000000
1155549.000000,20564462.000000
1111842.000000,20539178.000000
1075483.000000,20516525.000000
1046740.000000,20497380.000000
1038637.000000,20491646.000000
1025880.000000,20482619.000000
Z" /> 
</g>
<g style="fill:#000000; fill-opacity:1.0; 
stroke:#000000; stroke-width:250000.000000; stroke-opacity:1; 
stroke-linecap:round; stroke-linejoin:round;">
</g>
<g style="fill:#000000; fill-opacity:0.0; 
stroke:#000000; stroke-width:250000.000000; stroke-opacity:1; 
stroke-linecap:round; stroke-linejoin:round;">
<text x="3836200.000000" y="22605000.000000"
textLength="8571435.000000" font-size="1333333.000000" lengthAdjust="spacingAndGlyphs"
text-anchor="end" opacity="0">T. Virtmann</text>
<g class="stroked-text"><desc>T. Virtmann</desc>
<path d="M12474891 21557380
L11903462 21557380
" />
<path d="M12189177 22557380
L12189177 21557380
" />
<path d="M11570129 22462142
L11522510 22509761
L11570129 22557380
L11617748 22509761
L11570129 22462142
L11570129 22557380
" />
<path d="M10474891 21557380
L10141558 22557380
L9808224 21557380
" />
<path d="M9474891 22557380
L9474891 21890714
" />
<path d="M9474891 21557380
L9522510 21605000
L9474891 21652619
L9427272 21605000
L9474891 21557380
L9474891 21652619
" />
<path d="M8998700 22557380
L8998700 21890714
" />
<path d="M8998700 22081190
L8951081 21985952
L8903462 21938333
L8808224 21890714
L8712986 21890714
" />
<path d="M8522510 21890714
L8141558 21890714
" />
<path d="M8379653 21557380
L8379653 22414523
L8332034 22509761
L8236796 22557380
L8141558 22557380
" />
<path d="M7808224 22557380
L7808224 21890714
" />
<path d="M7808224 21985952
L7760605 21938333
L7665367 21890714
L7522510 21890714
L7427272 21938333
L7379653 22033571
L7379653 22557380
" />
<path d="M7379653 22033571
L7332034 21938333
L7236796 21890714
L7093939 21890714
L6998700 21938333
L6951081 22033571
L6951081 22557380
" />
<path d="M6046320 22557380
L6046320 22033571
L6093939 21938333
L6189177 21890714
L6379653 21890714
L6474891 21938333
" />
<path d="M6046320 22509761
L6141558 22557380
L6379653 22557380
L6474891 22509761
L6522510 22414523
L6522510 22319285
L6474891 22224047
L6379653 22176428
L6141558 22176428
L6046320 22128809
" />
<path d="M5570129 21890714
L5570129 22557380
" />
<path d="M5570129 21985952
L5522510 21938333
L5427272 21890714
L5284415 21890714
L5189177 21938333
L5141558 22033571
L5141558 22557380
" />
<path d="M4665367 21890714
L4665367 22557380
" />
<path d="M4665367 21985952
L4617748 21938333
L4522510 21890714
L4379653 21890714
L4284415 21938333
L4236796 22033571
L4236796 22557380
" />
</g><text x="3836200.000000" y="24215000.000000"
textLength="4134524.000000" font-size="1333333.000000" lengthAdjust="spacingAndGlyphs"
text-anchor="end" opacity="0">2022</text>
<g class="stroked-text"><desc>2022</desc>
<path d="M7617748 23262619
L7570129 23215000
L7474891 23167380
L7236796 23167380
L7141558 23215000
L7093939 23262619
L7046320 23357857
L7046320 23453095
L7093939 23595952
L7665367 24167380
L7046320 24167380
" />
<path d="M6427272 23167380
L6332034 23167380
L6236796 23215000
L6189177 23262619
L6141558 23357857
L6093939 23548333
L6093939 23786428
L6141558 23976904
L6189177 24072142
L6236796 24119761
L6332034 24167380
L6427272 24167380
L6522510 24119761
L6570129 24072142
L6617748 23976904
L6665367 23786428
L6665367 23548333
L6617748 23357857
L6570129 23262619
L6522510 23215000
L6427272 23167380
" />
<path d="M5712986 23262619
L5665367 23215000
L5570129 23167380
L5332034 23167380
L5236796 23215000
L5189177 23262619
L5141558 23357857
L5141558 23453095
L5189177 23595952
L5760605 24167380
L5141558 24167380
" />
<path d="M4760605 23262619
L4712986 23215000
L4617748 23167380
L4379653 23167380
L4284415 23215000
L4236796 23262619
L4189177 23357857
L4189177 23453095
L4236796 23595952
L4808224 24167380
L4189177 24167380
" />
</g></g>
<g style="fill:#000000; fill-opacity:0.0; 
stroke:#000000; stroke-width:300000.000000; stroke-opacity:1; 
stroke-linecap:round; stroke-linejoin:round;">
<g transform="rotate(-270.000000 1931200.000000 1320000.000000)">
<text x="1931200.000000" y="2070000.000000"
textLength="17039286.000000" font-size="2000000.000000" lengthAdjust="spacingAndGlyphs"
text-anchor="start" opacity="0">Transistor XOR</text>
</g>
<g class="stroked-text"><desc>Transistor XOR</desc>
<path d="M1109772 1657857
L1109772 2515000
" />
<path d="M2609772 2086428
L1109772 2086428
" />
<path d="M2609772 3015000
L1609772 3015000
" />
<path d="M1895486 3015000
L1752629 3086428
L1681200 3157857
L1609772 3300714
L1609772 3443571
" />
<path d="M2609772 4586428
L1824058 4586428
L1681200 4515000
L1609772 4372142
L1609772 4086428
L1681200 3943571
" />
<path d="M2538343 4586428
L2609772 4443571
L2609772 4086428
L2538343 3943571
L2395486 3872142
L2252629 3872142
L2109772 3943571
L2038343 4086428
L2038343 4443571
L1966915 4586428
" />
<path d="M1609772 5300714
L2609772 5300714
" />
<path d="M1752629 5300714
L1681200 5372142
L1609772 5515000
L1609772 5729285
L1681200 5872142
L1824058 5943571
L2609772 5943571
" />
<path d="M2538343 6586428
L2609772 6729285
L2609772 7015000
L2538343 7157857
L2395486 7229285
L2324058 7229285
L2181200 7157857
L2109772 7015000
L2109772 6800714
L2038343 6657857
L1895486 6586428
L1824058 6586428
L1681200 6657857
L1609772 6800714
L1609772 7015000
L1681200 7157857
" />
<path d="M2609772 7872142
L1609772 7872142
" />
<path d="M1109772 7872142
L1181200 7800714
L1252629 7872142
L1181200 7943571
L1109772 7872142
L1252629 7872142
" />
<path d="M2538343 8515000
L2609772 8657857
L2609772 8943571
L2538343 9086428
L2395486 9157857
L2324058 9157857
L2181200 9086428
L2109772 8943571
L2109772 8729285
L2038343 8586428
L1895486 8515000
L1824058 8515000
L1681200 8586428
L1609772 8729285
L1609772 8943571
L1681200 9086428
" />
<path d="M1609772 9586428
L1609772 10157857
" />
<path d="M1109772 9800714
L2395486 9800714
L2538343 9872142
L2609772 10015000
L2609772 10157857
" />
<path d="M2609772 10872142
L2538343 10729285
L2466915 10657857
L2324058 10586428
L1895486 10586428
L1752629 10657857
L1681200 10729285
L1609772 10872142
L1609772 11086428
L1681200 11229285
L1752629 11300714
L1895486 11372142
L2324058 11372142
L2466915 11300714
L2538343 11229285
L2609772 11086428
L2609772 10872142
" />
<path d="M2609772 12015000
L1609772 12015000
" />
<path d="M1895486 12015000
L1752629 12086428
L1681200 12157857
L1609772 12300714
L1609772 12443571
" />
<path d="M1109772 13943571
L2609772 14943571
" />
<path d="M1109772 14943571
L2609772 13943571
" />
<path d="M1109772 15800714
L1109772 16086428
L1181200 16229285
L1324058 16372142
L1609772 16443571
L2109772 16443571
L2395486 16372142
L2538343 16229285
L2609772 16086428
L2609772 15800714
L2538343 15657857
L2395486 15515000
L2109772 15443571
L1609772 15443571
L1324058 15515000
L1181200 15657857
L1109772 15800714
" />
<path d="M2609772 17943571
L1895486 17443571
" />
<path d="M2609772 17086428
L1109772 17086428
L1109772 17657857
L1181200 17800714
L1252629 17872142
L1395486 17943571
L1609772 17943571
L1752629 17872142
L1824058 17800714
L1895486 17657857
L1895486 17086428
" />
</g><g >
</g>
<g style="fill:#000000; fill-opacity:0.0; 
stroke:#000000; stroke-width:1.000000; stroke-opacity:1; 
stroke-linecap:round; stroke-linejoin:round;">
</g>
<g style="fill:#000000; fill-opacity:1.0; 
stroke:#000000; stroke-width:1.000000; stroke-opacity:1; 
stroke-linecap:round; stroke-linejoin:round;">
<path style="fill:#000000; fill-opacity:1.0; 
stroke:#000000; stroke-width:1.000000; stroke-opacity:1; 
stroke-linecap:round; stroke-linejoin:round;fill-rule:evenodd;"
d="M 23941201.000000,6185001.000000
23941201.000000,7884999.000000
25641199.000000,7884999.000000
25641199.000000,6185001.000000
Z" /> 
<circle cx="24791200.000000" cy="4495000.000000" r="850000.000000" /> 
<circle cx="24791200.000000" cy="1955000.000000" r="850000.000000" /> 
</g>
<g >
</g>
<g style="fill:#000000; fill-opacity:1.0; 
stroke:#000000; stroke-width:1.000000; stroke-opacity:1; 
stroke-linecap:round; stroke-linejoin:round;">
<path style="fill:#000000; fill-opacity:1.0; 
stroke:#000000; stroke-width:1.000000; stroke-opacity:1; 
stroke-linecap:round; stroke-linejoin:round;fill-rule:evenodd;"
d="M 21451201.000000,16395001.000000
21451201.000000,17994999.000000
23051199.000000,17994999.000000
23051199.000000,16395001.000000
Z" /> 
<circle cx="24791200.000000" cy="17195000.000000" r="800000.000000" /> 
</g>
<g >
</g>
<g style="fill:#000000; fill-opacity:1.0; 
stroke:#000000; stroke-width:1.000000; stroke-opacity:1; 
stroke-linecap:round; stroke-linejoin:round;">
<circle cx="9551200.000000" cy="7035000.000000" r="800000.000000" /> 
</g>
<g style="fill:#000000; fill-opacity:1.0; 
stroke:#000000; stroke-width:21200.000000; stroke-opacity:1; 
stroke-linecap:round; stroke-linejoin:round;">
</g>
<g style="fill:#000000; fill-opacity:1.0; 
stroke:#000000; stroke-width:1.000000; stroke-opacity:1; 
stroke-linecap:round; stroke-linejoin:round;">
<circle cx="12091200.000000" cy="7035000.000000" r="800000.000000" /> 
</g>
<g >
</g>
<g style="fill:#000000; fill-opacity:1.0; 
stroke:#000000; stroke-width:1.000000; stroke-opacity:1; 
stroke-linecap:round; stroke-linejoin:round;">
<path style="fill:#000000; fill-opacity:1.0; 
stroke:#000000; stroke-width:1.000000; stroke-opacity:1; 
stroke-linecap:round; stroke-linejoin:round;fill-rule:evenodd;"
d="M 12891199.000000,10374999.000000
12891199.000000,8775001.000000
11291201.000000,8775001.000000
11291201.000000,10374999.000000
Z" /> 
<circle cx="9551200.000000" cy="9575000.000000" r="800000.000000" /> 
</g>
<g >
</g>
<g style="fill:#000000; fill-opacity:1.0; 
stroke:#000000; stroke-width:1.000000; stroke-opacity:1; 
stroke-linecap:round; stroke-linejoin:round;">
<circle cx="12091200.000000" cy="17195000.000000" r="800000.000000" /> 
</g>
<g style="fill:#000000; fill-opacity:1.0; 
stroke:#000000; stroke-width:21200.000000; stroke-opacity:1; 
stroke-linecap:round; stroke-linejoin:round;">
</g>
<g style="fill:#000000; fill-opacity:1.0; 
stroke:#000000; stroke-width:1.000000; stroke-opacity:1; 
stroke-linecap:round; stroke-linejoin:round;">
<circle cx="12091200.000000" cy="14655000.000000" r="800000.000000" /> 
</g>
<g >
</g>
<g style="fill:#000000; fill-opacity:1.0; 
stroke:#000000; stroke-width:1.000000; stroke-opacity:1; 
stroke-linecap:round; stroke-linejoin:round;">
<path style="fill:#000000; fill-opacity:1.0; 
stroke:#000000; stroke-width:1.000000; stroke-opacity:1; 
stroke-linecap:round; stroke-linejoin:round;fill-rule:evenodd;"
d="M 30721199.000000,2804999.000000
30721199.000000,1105001.000000
29021201.000000,1105001.000000
29021201.000000,2804999.000000
Z" /> 
<circle cx="29871200.000000" cy="4495000.000000" r="850000.000000" /> 
</g>
<g >
</g>
<g style="fill:#000000; fill-opacity:1.0; 
stroke:#000000; stroke-width:1.000000; stroke-opacity:1; 
stroke-linecap:round; stroke-linejoin:round;">
<path style="fill:#000000; fill-opacity:1.0; 
stroke:#000000; stroke-width:1.000000; stroke-opacity:1; 
stroke-linecap:round; stroke-linejoin:round;fill-rule:evenodd;"
d="M 3721201.000000,16445001.000000
3721201.000000,17944999.000000
5221199.000000,17944999.000000
5221199.000000,16445001.000000
Z" /> 
<circle cx="7011200.000000" cy="17195000.000000" r="750000.000000" /> 
</g>
<g style="fill:#000000; fill-opacity:1.0; 
stroke:#000000; stroke-width:21200.000000; stroke-opacity:1; 
stroke-linecap:round; stroke-linejoin:round;">
</g>
<g style="fill:#000000; fill-opacity:1.0; 
stroke:#000000; stroke-width:1.000000; stroke-opacity:1; 
stroke-linecap:round; stroke-linejoin:round;">
<circle cx="9551200.000000" cy="17195000.000000" r="750000.000000" /> 
</g>
<g style="fill:#000000; fill-opacity:1.0; 
stroke:#000000; stroke-width:21200.000000; stroke-opacity:1; 
stroke-linecap:round; stroke-linejoin:round;">
</g>
<g >
</g>
<g style="fill:#000000; fill-opacity:1.0; 
stroke:#000000; stroke-width:21200.000000; stroke-opacity:1; 
stroke-linecap:round; stroke-linejoin:round;">
</g>
<g style="fill:#000000; fill-opacity:1.0; 
stroke:#000000; stroke-width:1.000000; stroke-opacity:1; 
stroke-linecap:round; stroke-linejoin:round;">
<path style="fill:#000000; fill-opacity:1.0; 
stroke:#000000; stroke-width:1.000000; stroke-opacity:1; 
stroke-linecap:round; stroke-linejoin:round;fill-rule:evenodd;"
d="M 7761199.000000,6285001.000000
6261201.000000,6285001.000000
6261201.000000,7784999.000000
7761199.000000,7784999.000000
Z" /> 
<circle cx="7011200.000000" cy="9575000.000000" r="750000.000000" /> 
</g>
<g style="fill:#000000; fill-opacity:1.0; 
stroke:#000000; stroke-width:21200.000000; stroke-opacity:1; 
stroke-linecap:round; stroke-linejoin:round;">
</g>
<g style="fill:#000000; fill-opacity:1.0; 
stroke:#000000; stroke-width:1.000000; stroke-opacity:1; 
stroke-linecap:round; stroke-linejoin:round;">
<circle cx="7011200.000000" cy="12115000.000000" r="750000.000000" /> 
</g>
<g style="fill:#000000; fill-opacity:1.0; 
stroke:#000000; stroke-width:21200.000000; stroke-opacity:1; 
stroke-linecap:round; stroke-linejoin:round;">
</g>
<g >
</g>
<g style="fill:#000000; fill-opacity:1.0; 
stroke:#000000; stroke-width:21200.000000; stroke-opacity:1; 
stroke-linecap:round; stroke-linejoin:round;">
</g>
<g style="fill:#000000; fill-opacity:1.0; 
stroke:#000000; stroke-width:1.000000; stroke-opacity:1; 
stroke-linecap:round; stroke-linejoin:round;">
<circle cx="17171200.000000" cy="14655000.000000" r="800000.000000" /> 
</g>
<g style="fill:#000000; fill-opacity:1.0; 
stroke:#000000; stroke-width:21200.000000; stroke-opacity:1; 
stroke-linecap:round; stroke-linejoin:round;">
</g>
<g style="fill:#000000; fill-opacity:1.0; 
stroke:#000000; stroke-width:1.000000; stroke-opacity:1; 
stroke-linecap:round; stroke-linejoin:round;">
<circle cx="17171200.000000" cy="12115000.000000" r="800000.000000" /> 
</g>
<g >
</g>
<g style="fill:#000000; fill-opacity:1.0; 
stroke:#000000; stroke-width:1.000000; stroke-opacity:1; 
stroke-linecap:round; stroke-linejoin:round;">
<path style="fill:#000000; fill-opacity:1.0; 
stroke:#000000; stroke-width:1.000000; stroke-opacity:1; 
stroke-linecap:round; stroke-linejoin:round;fill-rule:evenodd;"
d="M 25591199.000000,20534999.000000
25591199.000000,18935001.000000
23991201.000000,18935001.000000
23991201.000000,20534999.000000
Z" /> 
<circle cx="22251200.000000" cy="19735000.000000" r="800000.000000" /> 
</g>
<g >
</g>
<g style="fill:#000000; fill-opacity:1.0; 
stroke:#000000; stroke-width:1.000000; stroke-opacity:1; 
stroke-linecap:round; stroke-linejoin:round;">
<circle cx="4471200.000000" cy="4495000.000000" r="800000.000000" /> 
</g>
<g style="fill:#000000; fill-opacity:1.0; 
stroke:#000000; stroke-width:21200.000000; stroke-opacity:1; 
stroke-linecap:round; stroke-linejoin:round;">
</g>
<g style="fill:#000000; fill-opacity:1.0; 
stroke:#000000; stroke-width:1.000000; stroke-opacity:1; 
stroke-linecap:round; stroke-linejoin:round;">
<circle cx="4471200.000000" cy="1955000.000000" r="800000.000000" /> 
</g>
<g >
</g>
<g style="fill:#000000; fill-opacity:1.0; 
stroke:#000000; stroke-width:1.000000; stroke-opacity:1; 
stroke-linecap:round; stroke-linejoin:round;">
<path style="fill:#000000; fill-opacity:1.0; 
stroke:#000000; stroke-width:1.000000; stroke-opacity:1; 
stroke-linecap:round; stroke-linejoin:round;fill-rule:evenodd;"
d="M 18861201.000000,6185001.000000
18861201.000000,7884999.000000
20561199.000000,7884999.000000
20561199.000000,6185001.000000
Z" /> 
<circle cx="19711200.000000" cy="4495000.000000" r="850000.000000" /> 
<circle cx="19711200.000000" cy="1955000.000000" r="850000.000000" /> 
</g>
<g >
</g>
<g style="fill:#000000; fill-opacity:1.0; 
stroke:#000000; stroke-width:1.000000; stroke-opacity:1; 
stroke-linecap:round; stroke-linejoin:round;">
<circle cx="7011200.000000" cy="19735000.000000" r="800000.000000" /> 
</g>
<g style="fill:#000000; fill-opacity:1.0; 
stroke:#000000; stroke-width:21200.000000; stroke-opacity:1; 
stroke-linecap:round; stroke-linejoin:round;">
</g>
<g style="fill:#000000; fill-opacity:1.0; 
stroke:#000000; stroke-width:1.000000; stroke-opacity:1; 
stroke-linecap:round; stroke-linejoin:round;">
<circle cx="4471200.000000" cy="19735000.000000" r="800000.000000" /> 
</g>
<g >
</g>
<g style="fill:#000000; fill-opacity:1.0; 
stroke:#000000; stroke-width:1.000000; stroke-opacity:1; 
stroke-linecap:round; stroke-linejoin:round;">
<path style="fill:#000000; fill-opacity:1.0; 
stroke:#000000; stroke-width:1.000000; stroke-opacity:1; 
stroke-linecap:round; stroke-linejoin:round;fill-rule:evenodd;"
d="M 8751201.000000,15454999.000000
10351199.000000,15454999.000000
10351199.000000,13855001.000000
8751201.000000,13855001.000000
Z" /> 
<circle cx="9551200.000000" cy="12115000.000000" r="800000.000000" /> 
</g>
<g >
</g>
<g style="fill:#000000; fill-opacity:1.0; 
stroke:#000000; stroke-width:1.000000; stroke-opacity:1; 
stroke-linecap:round; stroke-linejoin:round;">
<path style="fill:#000000; fill-opacity:1.0; 
stroke:#000000; stroke-width:1.000000; stroke-opacity:1; 
stroke-linecap:round; stroke-linejoin:round;fill-rule:evenodd;"
d="M 12991199.000000,20634999.000000
12991199.000000,18835001.000000
11191201.000000,18835001.000000
11191201.000000,20634999.000000
Z" /> 
<circle cx="9551200.000000" cy="19735000.000000" r="900000.000000" /> 
</g>
<g style="fill:#000000; fill-opacity:1.0; 
stroke:#000000; stroke-width:21200.000000; stroke-opacity:1; 
stroke-linecap:round; stroke-linejoin:round;">
</g>
<g >
</g>
<g style="fill:#000000; fill-opacity:1.0; 
stroke:#000000; stroke-width:21200.000000; stroke-opacity:1; 
stroke-linecap:round; stroke-linejoin:round;">
</g>
<g style="fill:#000000; fill-opacity:1.0; 
stroke:#000000; stroke-width:1.000000; stroke-opacity:1; 
stroke-linecap:round; stroke-linejoin:round;">
<path style="fill:#000000; fill-opacity:1.0; 
stroke:#000000; stroke-width:1.000000; stroke-opacity:1; 
stroke-linecap:round; stroke-linejoin:round;fill-rule:evenodd;"
d="M 15381199.000000,8825001.000000
13881201.000000,8825001.000000
13881201.000000,10324999.000000
15381199.000000,10324999.000000
Z" /> 
<circle cx="14631200.000000" cy="12115000.000000" r="750000.000000" /> 
</g>
<g style="fill:#000000; fill-opacity:1.0; 
stroke:#000000; stroke-width:21200.000000; stroke-opacity:1; 
stroke-linecap:round; stroke-linejoin:round;">
</g>
<g style="fill:#000000; fill-opacity:1.0; 
stroke:#000000; stroke-width:1.000000; stroke-opacity:1; 
stroke-linecap:round; stroke-linejoin:round;">
<circle cx="14631200.000000" cy="14655000.000000" r="750000.000000" /> 
</g>
<g style="fill:#000000; fill-opacity:1.0; 
stroke:#000000; stroke-width:21200.000000; stroke-opacity:1; 
stroke-linecap:round; stroke-linejoin:round;">
</g>
<g >
</g>
<g style="fill:#000000; fill-opacity:1.0; 
stroke:#000000; stroke-width:21200.000000; stroke-opacity:1; 
stroke-linecap:round; stroke-linejoin:round;">
</g>
<g style="fill:#000000; fill-opacity:1.0; 
stroke:#000000; stroke-width:1.000000; stroke-opacity:1; 
stroke-linecap:round; stroke-linejoin:round;">
<path style="fill:#000000; fill-opacity:1.0; 
stroke:#000000; stroke-width:1.000000; stroke-opacity:1; 
stroke-linecap:round; stroke-linejoin:round;fill-rule:evenodd;"
d="M 21451201.000000,13855001.000000
21451201.000000,15454999.000000
23051199.000000,15454999.000000
23051199.000000,13855001.000000
Z" /> 
<circle cx="24791200.000000" cy="14655000.000000" r="800000.000000" /> 
</g>
<g >
</g>
<g style="fill:#000000; fill-opacity:1.0; 
stroke:#000000; stroke-width:1.000000; stroke-opacity:1; 
stroke-linecap:round; stroke-linejoin:round;">
<circle cx="12091200.000000" cy="4495000.000000" r="800000.000000" /> 
</g>
<g style="fill:#000000; fill-opacity:1.0; 
stroke:#000000; stroke-width:21200.000000; stroke-opacity:1; 
stroke-linecap:round; stroke-linejoin:round;">
</g>
<g style="fill:#000000; fill-opacity:1.0; 
stroke:#000000; stroke-width:1.000000; stroke-opacity:1; 
stroke-linecap:round; stroke-linejoin:round;">
<circle cx="12091200.000000" cy="1955000.000000" r="800000.000000" /> 
</g>
<g >
</g>
<g style="fill:#000000; fill-opacity:1.0; 
stroke:#000000; stroke-width:1.000000; stroke-opacity:1; 
stroke-linecap:round; stroke-linejoin:round;">
<path style="fill:#000000; fill-opacity:1.0; 
stroke:#000000; stroke-width:1.000000; stroke-opacity:1; 
stroke-linecap:round; stroke-linejoin:round;fill-rule:evenodd;"
d="M 25591199.000000,12914999.000000
25591199.000000,11315001.000000
23991201.000000,11315001.000000
23991201.000000,12914999.000000
Z" /> 
<circle cx="22251200.000000" cy="12115000.000000" r="800000.000000" /> 
</g>
<g >
</g>
<g style="fill:#000000; fill-opacity:1.0; 
stroke:#000000; stroke-width:1.000000; stroke-opacity:1; 
stroke-linecap:round; stroke-linejoin:round;">
<circle cx="14631200.000000" cy="4495000.000000" r="800000.000000" /> 
</g>
<g style="fill:#000000; fill-opacity:1.0; 
stroke:#000000; stroke-width:21200.000000; stroke-opacity:1; 
stroke-linecap:round; stroke-linejoin:round;">
</g>
<g style="fill:#000000; fill-opacity:1.0; 
stroke:#000000; stroke-width:1.000000; stroke-opacity:1; 
stroke-linecap:round; stroke-linejoin:round;">
<circle cx="14631200.000000" cy="1955000.000000" r="800000.000000" /> 
</g>
<g >
</g>
<g style="fill:#000000; fill-opacity:1.0; 
stroke:#000000; stroke-width:1.000000; stroke-opacity:1; 
stroke-linecap:round; stroke-linejoin:round;">
<circle cx="19711200.000000" cy="19735000.000000" r="1250000.000000" /> 
</g>
<g style="fill:#000000; fill-opacity:1.0; 
stroke:#000000; stroke-width:21200.000000; stroke-opacity:1; 
stroke-linecap:round; stroke-linejoin:round;">
</g>
<g style="fill:#000000; fill-opacity:1.0; 
stroke:#000000; stroke-width:1.000000; stroke-opacity:1; 
stroke-linecap:round; stroke-linejoin:round;">
<circle cx="19711200.000000" cy="12115000.000000" r="1250000.000000" /> 
</g>
<g style="fill:#000000; fill-opacity:1.0; 
stroke:#000000; stroke-width:21200.000000; stroke-opacity:1; 
stroke-linecap:round; stroke-linejoin:round;">
</g>
<g style="fill:#000000; fill-opacity:1.0; 
stroke:#000000; stroke-width:1.000000; stroke-opacity:1; 
stroke-linecap:round; stroke-linejoin:round;">
<circle cx="27331200.000000" cy="9575000.000000" r="1250000.000000" /> 
</g>
<g style="fill:#000000; fill-opacity:1.0; 
stroke:#000000; stroke-width:21200.000000; stroke-opacity:1; 
stroke-linecap:round; stroke-linejoin:round;">
</g>
<g style="fill:#000000; fill-opacity:1.0; 
stroke:#000000; stroke-width:1.000000; stroke-opacity:1; 
stroke-linecap:round; stroke-linejoin:round;">
<circle cx="27331200.000000" cy="4495000.000000" r="1250000.000000" /> 
</g>
<g style="fill:#000000; fill-opacity:1.0; 
stroke:#000000; stroke-width:21200.000000; stroke-opacity:1; 
stroke-linecap:round; stroke-linejoin:round;">
</g>
<g >
</g>
<g style="fill:#000000; fill-opacity:1.0; 
stroke:#000000; stroke-width:21200.000000; stroke-opacity:1; 
stroke-linecap:round; stroke-linejoin:round;">
</g>
<g style="fill:#000000; fill-opacity:1.0; 
stroke:#000000; stroke-width:1000000.000000; stroke-opacity:1; 
stroke-linecap:round; stroke-linejoin:round;">
</g>
<g style="fill:#000000; fill-opacity:0.0; 
stroke:#000000; stroke-width:1000000.000000; stroke-opacity:1; 
stroke-linecap:round; stroke-linejoin:round;">
<path d="M12091200 19735000
L15901200 23545000
" />
<path d="M9551200 17195000
L12091200 17195000
" />
<path d="M27331200 23545000
L29871200 21005000
" />
<path d="M24791200 7035000
L29871200 7035000
" />
<path d="M29871200 7035000
L29871200 4495000
" />
<path d="M29871200 21005000
L29871200 4495000
" />
<path d="M24791200 7035000
L19711200 7035000
" />
<path d="M15901200 23545000
L27331200 23545000
" />
<path d="M12091200 17195000
L12091200 19735000
" />
<path d="M7011200 19735000
L9551200 19735000
" />
<path d="M24791200 9575000
L24791200 12115000
" />
<path d="M17171200 9575000
L24791200 9575000
" />
<path d="M17171200 4495000
L17171200 9575000
" />
<path d="M19711200 4495000
L17171200 4495000
" />
<path d="M24791200 14655000
L24791200 12115000
" />
<path d="M14631200 17195000
L17171200 19735000
" />
<path d="M14631200 14655000
L14631200 17195000
" />
<path d="M17171200 19735000
L19711200 19735000
" />
<path d="M22251200 19735000
L19711200 19735000
" />
<path d="M19711200 12115000
L22251200 12115000
" />
<path d="M22251200 14655000
L22251200 17195000
" />
<path d="M22251200 14655000
L17171200 14655000
" />
<path d="M27331200 9575000
L27331200 17195000
" />
<path d="M24791200 4495000
L27331200 4495000
" />
<path d="M24791200 17195000
L24791200 19735000
" />
<path d="M27331200 17195000
L24791200 17195000
" />
<path d="M4471200 1955000
L12091200 1955000
" />
<path d="M29871200 1955000
L19711200 1955000
" />
<path d="M14631200 1955000
L19711200 1955000
" />
<path d="M12091200 1955000
L14631200 1955000
" />
<path d="M7011200 7035000
L7011200 4495000
" />
<path d="M12091200 7035000
L12091200 4495000
" />
<path d="M7011200 4495000
L12091200 4495000
" />
<path d="M14631200 12115000
L17171200 12115000
" />
<path d="M14631200 4495000
L14631200 9575000
" />
<path d="M12091200 9575000
L14631200 9575000
" />
<path d="M9551200 7035000
L9551200 9575000
" />
<path d="M7011200 9575000
L9551200 9575000
" />
<path d="M7011200 14655000
L7011200 17195000
" />
<path d="M9551200 14655000
L12091200 14655000
" />
<path d="M9551200 14655000
L7011200 14655000
" />
<path d="M7011200 12115000
L9551200 12115000
" />
<path d="M4471200 4495000
L4471200 17195000
" />
<path d="M4471200 17195000
L4471200 19735000
" />
</g>
<g >
</g>
<g style="fill:#000000; fill-opacity:0.0; 
stroke:#000000; stroke-width:1000000.000000; stroke-opacity:1; 
stroke-linecap:round; stroke-linejoin:round;">
<g >
</g>
<g style="fill:#000000; fill-opacity:1.0; 
stroke:#000000; stroke-width:1.000000; stroke-opacity:1; 
stroke-linecap:round; stroke-linejoin:round;">
<path style="fill:#000000; fill-opacity:1.0; 
stroke:#000000; stroke-width:1.000000; stroke-opacity:1; 
stroke-linecap:round; stroke-linejoin:round;fill-rule:evenodd;"
d="M 20600686.000000,2983502.000000
20588323.000000,2992555.000000
20493074.000000,3071632.000000
20451414.000000,3095976.000000
20419755.000000,3114476.000000
20371031.000000,3166114.000000
20357960.000000,3235897.000000
20384691.000000,3301669.000000
20425145.000000,3335027.000000
20437593.000000,3341507.000000
20441726.000000,3344610.000000
20441729.000000,3344612.000000
20604066.000000,3466498.000000
20616235.000000,3475635.000000
20644395.000000,3505103.000000
20699239.000000,3562494.000000
20770571.000000,3637138.000000
20773485.000000,3641410.000000
20773486.000000,3641411.000000
20829781.000000,3723937.000000
20896457.000000,3821680.000000
20990512.000000,4024305.000000
21050211.000000,4239570.000000
21073949.000000,4461695.000000
21073652.000000,4466848.000000
21073652.000000,4466851.000000
21068189.000000,4561590.000000
21061090.000000,4684715.000000
21059953.000000,4689761.000000
21059952.000000,4689767.000000
21052245.000000,4723964.000000
21011978.000000,4902639.000000
20927934.000000,5109616.000000
20877181.000000,5192438.000000
20834510.000000,5262070.000000
20811213.000000,5300088.000000
20664950.000000,5468938.000000
20660975.000000,5472238.000000
20660969.000000,5472244.000000
20655775.000000,5476556.000000
20616141.000000,5535460.000000
20614645.000000,5606441.000000
20651761.000000,5666962.000000
20692032.000000,5691480.000000
20799254.000000,5731676.000000
20814849.000000,5740214.000000
20916924.000000,5816715.000000
20929485.000000,5829276.000000
21005986.000000,5931351.000000
21014524.000000,5946946.000000
21059678.000000,6067394.000000
21063305.000000,6082649.000000
21068831.000000,6133514.000000
21069200.000000,6140328.000000
21069200.000000,6762885.000000
21064725.000000,6778124.000000
21063335.000000,6779329.000000
21055652.000000,6781000.000000
19583200.000000,6781000.000000
19515079.000000,6801002.000000
19468586.000000,6854658.000000
19457200.000000,6907000.000000
19457200.000000,7163000.000000
19477202.000000,7231121.000000
19530858.000000,7277614.000000
19583200.000000,7289000.000000
21051084.000000,7289000.000000
21066323.000000,7293475.000000
21067528.000000,7294865.000000
21069199.000000,7302548.000000
21069199.000000,7929669.000000
21068829.000000,7936490.000000
21063305.000000,7987352.000000
21059679.000000,8002604.000000
21014524.000000,8123054.000000
21005986.000000,8138649.000000
20929485.000000,8240724.000000
20916924.000000,8253285.000000
20814846.000000,8329788.000000
20814495.000000,8329980.000000
20814214.000000,8330261.000000
20807662.000000,8335172.000000
20808371.000000,8336118.000000
20764349.000000,8380238.000000
20749335.000000,8449629.000000
20774220.000000,8516121.000000
20831103.000000,8558605.000000
20875004.000000,8566500.000000
23627396.000000,8566500.000000
23695517.000000,8546498.000000
23742010.000000,8492842.000000
23752114.000000,8422568.000000
23722620.000000,8357988.000000
23694588.000000,8335372.000000
23694738.000000,8335172.000000
23689143.000000,8330979.000000
23687905.000000,8329980.000000
23687554.000000,8329788.000000
23585476.000000,8253285.000000
23572915.000000,8240724.000000
23496414.000000,8138649.000000
23487876.000000,8123054.000000
23442722.000000,8002606.000000
23439095.000000,7987351.000000
23433569.000000,7936486.000000
23433200.000000,7929672.000000
23433200.000000,7307115.000000
23437675.000000,7291876.000000
23439065.000000,7290671.000000
23446748.000000,7289000.000000
26131084.000000,7289000.000000
26146323.000000,7293475.000000
26147528.000000,7294865.000000
26149199.000000,7302548.000000
26149199.000000,7929669.000000
26148829.000000,7936490.000000
26143305.000000,7987350.000000
26142203.000000,7991986.000000
26145904.000000,8062886.000000
26187348.000000,8120530.000000
26253379.000000,8146617.000000
26323030.000000,8132863.000000
26336604.000000,8124662.000000
26375009.000000,8098020.000000
26436191.000000,8055576.000000
26449473.000000,8049026.000000
26666419.000000,7942040.000000
26666422.000000,7942039.000000
26670607.000000,7939975.000000
26681506.000000,7936486.000000
26915077.000000,7861720.000000
26919535.000000,7860293.000000
27177507.000000,7818279.000000
27291258.000000,7816790.000000
27434178.000000,7814919.000000
27434181.000000,7814919.000000
27438855.000000,7814858.000000
27697838.000000,7850104.000000
27702324.000000,7851412.000000
27702326.000000,7851412.000000
27769864.000000,7871098.000000
27948767.000000,7923243.000000
27953020.000000,7925203.000000
27953021.000000,7925204.000000
27989541.000000,7942040.000000
28186128.000000,8032668.000000
28225132.000000,8058240.000000
28400796.000000,8173410.000000
28400801.000000,8173414.000000
28404709.000000,8175976.000000
28599706.000000,8350018.000000
28766837.000000,8550970.000000
28769266.000000,8554973.000000
28878406.000000,8734831.000000
28902429.000000,8774419.000000
29003503.000000,9015455.000000
29067841.000000,9268783.000000
29094027.000000,9528839.000000
29093803.000000,9533505.000000
29093803.000000,9533511.000000
29089083.000000,9631773.000000
29081487.000000,9789908.000000
29030496.000000,10046256.000000
28942174.000000,10292252.000000
28939958.000000,10296376.000000
28822010.000000,10515889.000000
28818463.000000,10522491.000000
28815668.000000,10526234.000000
28815666.000000,10526237.000000
28664870.000000,10728177.000000
28664865.000000,10728183.000000
28662078.000000,10731915.000000
28658769.000000,10735195.000000
28658764.000000,10735201.000000
28502589.000000,10890018.000000
28476457.000000,10915923.000000
28472694.000000,10918682.000000
28472686.000000,10918689.000000
28391196.000000,10978439.000000
28348087.000000,11034849.000000
28339700.000000,11080051.000000
28339700.000000,17135127.000000
28340390.000000,17148297.000000
28344555.000000,17187925.000000
28339982.000000,17238173.000000
28339700.000000,17242207.000000
28339700.000000,17244769.000000
28339400.000000,17247827.000000
28339400.000000,17247831.000000
28335305.000000,17289596.000000
28335223.000000,17290471.000000
28326630.000000,17384888.000000
28325627.000000,17388297.000000
28325280.000000,17391833.000000
28314266.000000,17428312.000000
28297866.000000,17482630.000000
28297639.000000,17483390.000000
28270790.000000,17574619.000000
28269142.000000,17577772.000000
28268116.000000,17581169.000000
28265229.000000,17586599.000000
28265228.000000,17586601.000000
28223531.000000,17665022.000000
28223184.000000,17665681.000000
28179160.000000,17749890.000000
28176935.000000,17752658.000000
28175266.000000,17755796.000000
28171369.000000,17760574.000000
28115259.000000,17829372.000000
28114706.000000,17830056.000000
28059098.000000,17899218.000000
28059092.000000,17899224.000000
28055232.000000,17904025.000000
28052511.000000,17906308.000000
28050265.000000,17909062.000000
28045518.000000,17912989.000000
28045516.000000,17912991.000000
28027494.000000,17927900.000000
27977064.000000,17969619.000000
27976529.000000,17970065.000000
27965843.000000,17979031.000000
27927253.000000,18011412.000000
27903726.000000,18031154.000000
27900611.000000,18032866.000000
27897875.000000,18035130.000000
27828054.000000,18072882.000000
27814335.000000,18080300.000000
27813597.000000,18080702.000000
27730413.000000,18126433.000000
27727030.000000,18127506.000000
27723901.000000,18129198.000000
27678451.000000,18143267.000000
27633198.000000,18157275.000000
27632358.000000,18157538.000000
27547765.000000,18184373.000000
27547761.000000,18184374.000000
27541894.000000,18186235.000000
27538363.000000,18186631.000000
27534968.000000,18187682.000000
27440493.000000,18197611.000000
27439779.000000,18197689.000000
27387973.000000,18203500.000000
27385400.000000,18203500.000000
27381424.000000,18203820.000000
27344404.000000,18207711.000000
27344402.000000,18207711.000000
27338275.000000,18208355.000000
27290630.000000,18204019.000000
27279210.000000,18203500.000000
25925700.000000,18203500.000000
25857579.000000,18223502.000000
25811086.000000,18277158.000000
25799700.000000,18329500.000000
25799700.000000,18392725.000000
25819702.000000,18460846.000000
25850135.000000,18493551.000000
25954461.000000,18571739.000000
26041815.000000,18688295.000000
26092945.000000,18824684.000000
26099700.000000,18886866.000000
26099700.000000,20583134.000000
26092945.000000,20645316.000000
26041815.000000,20781705.000000
25954461.000000,20898261.000000
25837905.000000,20985615.000000
25701516.000000,21036745.000000
25639334.000000,21043500.000000
23943066.000000,21043500.000000
23880884.000000,21036745.000000
23744495.000000,20985615.000000
23627939.000000,20898261.000000
23540585.000000,20781705.000000
23489455.000000,20645316.000000
23488283.000000,20634526.000000
23487397.000000,20632394.000000
23486775.000000,20629778.000000
23486352.000000,20629879.000000
23461045.000000,20568965.000000
23402683.000000,20528537.000000
23331729.000000,20526078.000000
23270710.000000,20562371.000000
23263711.000000,20571031.000000
23260554.000000,20574793.000000
23257398.000000,20579300.000000
23095500.000000,20741198.000000
23090992.000000,20744355.000000
23090989.000000,20744357.000000
23049658.000000,20773297.000000
22907949.000000,20872523.000000
22902967.000000,20874846.000000
22902962.000000,20874849.000000
22705425.000000,20966961.000000
22700443.000000,20969284.000000
22695135.000000,20970706.000000
22695133.000000,20970707.000000
22484602.000000,21027119.000000
22484600.000000,21027119.000000
22479287.000000,21028543.000000
22251200.000000,21048498.000000
22023113.000000,21028543.000000
22017800.000000,21027119.000000
22017798.000000,21027119.000000
21807267.000000,20970707.000000
21807265.000000,20970706.000000
21801957.000000,20969284.000000
21796975.000000,20966961.000000
21599438.000000,20874849.000000
21599433.000000,20874846.000000
21594451.000000,20872523.000000
21442731.000000,20766287.000000
21370460.000000,20743500.000000
21216070.000000,20743500.000000
21147949.000000,20763502.000000
21115112.000000,20794111.000000
21044870.000000,20888177.000000
21044865.000000,20888183.000000
21042078.000000,20891915.000000
21038769.000000,20895195.000000
21038764.000000,20895201.000000
20859774.000000,21072635.000000
20856457.000000,21075923.000000
20852695.000000,21078681.000000
20852692.000000,21078684.000000
20690580.000000,21197549.000000
20645676.000000,21230474.000000
20641533.000000,21232654.000000
20641531.000000,21232655.000000
20418516.000000,21349989.000000
20418511.000000,21349991.000000
20414366.000000,21352172.000000
20258527.000000,21406594.000000
20172386.000000,21436676.000000
20167610.000000,21438344.000000
20163017.000000,21439216.000000
19915415.000000,21486224.000000
19915412.000000,21486224.000000
19910826.000000,21487095.000000
19780242.000000,21492226.000000
19654325.000000,21497174.000000
19654319.000000,21497174.000000
19649657.000000,21497357.000000
19570223.000000,21488657.000000
19394493.000000,21469412.000000
19394488.000000,21469411.000000
19389840.000000,21468902.000000
19337545.000000,21455134.000000
19141606.000000,21403548.000000
19141604.000000,21403547.000000
19137083.000000,21402357.000000
18896938.000000,21299182.000000
18674681.000000,21161646.000000
18671118.000000,21158629.000000
18671113.000000,21158626.000000
18478761.000000,20995787.000000
18478760.000000,20995786.000000
18475195.000000,20992768.000000
18302861.000000,20796259.000000
18301059.000000,20793458.000000
18244371.000000,20751304.000000
18200716.000000,20743500.000000
17233043.000000,20743500.000000
17219436.000000,20744237.000000
17187938.000000,20747659.000000
17187933.000000,20747659.000000
17181812.000000,20748324.000000
17155562.000000,20746027.000000
17131812.000000,20743950.000000
17126986.000000,20743621.000000
17124514.000000,20743500.000000
17121431.000000,20743500.000000
17109462.000000,20742326.000000
17078694.000000,20739310.000000
17077381.000000,20739188.000000
17033116.000000,20735315.000000
16984787.000000,20731087.000000
16979668.000000,20729600.000000
16974367.000000,20729080.000000
16885366.000000,20702209.000000
16884233.000000,20701874.000000
16800786.000000,20677630.000000
16800782.000000,20677628.000000
16794864.000000,20675909.000000
16790132.000000,20673456.000000
16785031.000000,20671916.000000
16720238.000000,20637466.000000
16702940.000000,20628269.000000
16701774.000000,20627657.000000
16624747.000000,20587729.000000
16619274.000000,20584892.000000
16615111.000000,20581569.000000
16610404.000000,20579066.000000
16538282.000000,20520245.000000
16537426.000000,20519554.000000
16498227.000000,20488262.000000
16495723.000000,20485758.000000
16495005.000000,20485116.000000
16490672.000000,20481415.000000
16457138.000000,20454065.000000
16427912.000000,20418737.000000
16419923.000000,20409958.000000
13961815.000000,17951850.000000
13951672.000000,17942748.000000
13926982.000000,17922897.000000
13922175.000000,17919032.000000
13889888.000000,17880554.000000
13886733.000000,17876938.000000
13885077.000000,17875112.000000
13882891.000000,17872926.000000
13880936.000000,17870546.000000
13880927.000000,17870536.000000
13855624.000000,17839732.000000
13854782.000000,17838717.000000
13799006.000000,17772245.000000
13795046.000000,17767526.000000
13792477.000000,17762852.000000
13789098.000000,17758739.000000
13745225.000000,17676915.000000
13744616.000000,17675793.000000
13738866.000000,17665335.000000
13723162.000000,17636768.000000
13702736.000000,17599614.000000
13702735.000000,17599612.000000
13699767.000000,17594213.000000
13698155.000000,17589131.000000
13695638.000000,17584437.000000
13668438.000000,17495469.000000
13668092.000000,17494358.000000
13664639.000000,17483475.000000
13639965.000000,17405694.000000
13639371.000000,17400398.000000
13637813.000000,17395302.000000
13637190.000000,17389166.000000
13635972.000000,17383128.000000
13633718.000000,17383582.000000
13610793.000000,17327326.000000
13552708.000000,17286502.000000
13481773.000000,17283561.000000
13420508.000000,17319438.000000
13388365.000000,17382742.000000
13386712.000000,17394844.000000
13384728.000000,17417519.000000
13382825.000000,17428312.000000
13326436.000000,17638761.000000
13322690.000000,17649053.000000
13230614.000000,17846511.000000
13225131.000000,17856006.000000
13188691.000000,17908048.000000
13178212.000000,17916424.000000
13164766.000000,17909356.000000
12463222.000000,17207812.000000
12456844.000000,17196132.000000
11726792.000000,17196132.000000
11726661.000000,17197965.000000
11722410.000000,17204580.000000
11016913.000000,17910077.000000
11005138.000000,17916507.000000
10993123.000000,17907211.000000
10957269.000000,17856006.000000
10951786.000000,17846511.000000
10907810.000000,17752204.000000
10860892.000000,17698919.000000
10792615.000000,17679458.000000
10724655.000000,17700000.000000
10679420.000000,17752204.000000
10647145.000000,17821417.000000
10641666.000000,17830907.000000
10612789.000000,17872149.000000
10602313.000000,17880523.000000
10588866.000000,17873455.000000
9923221.000000,17207811.000000
9915608.000000,17193868.000000
9915739.000000,17192034.000000
9919990.000000,17185420.000000
10589591.000000,16515820.000000
10601361.000000,16509393.000000
10613376.000000,16518689.000000
10641666.000000,16559093.000000
10647145.000000,16568583.000000
10679420.000000,16637796.000000
10726337.000000,16691081.000000
10794614.000000,16710542.000000
10862574.000000,16690000.000000
10907810.000000,16637796.000000
10951786.000000,16543489.000000
10957269.000000,16533994.000000
10993709.000000,16481952.000000
11004188.000000,16473576.000000
11017634.000000,16480644.000000
11719178.000000,17182188.000000
11726792.000000,17196132.000000
12456844.000000,17196132.000000
12455608.000000,17193868.000000
12455739.000000,17192035.000000
12459990.000000,17185420.000000
13165487.000000,16479923.000000
13177262.000000,16473493.000000
13189277.000000,16482789.000000
13225131.000000,16533994.000000
13230614.000000,16543489.000000
13322690.000000,16740947.000000
13326436.000000,16751239.000000
13374993.000000,16932457.000000
13411945.000000,16993080.000000
13475805.000000,17024101.000000
13546300.000000,17015673.000000
13601047.000000,16970470.000000
13622700.000000,16899846.000000
13622700.000000,15448567.000000
13599913.000000,15376297.000000
13557873.000000,15316257.000000
13537144.000000,15286653.000000
13502980.000000,15213388.000000
13456063.000000,15160102.000000
13387786.000000,15140641.000000
13319826.000000,15161182.000000
13274590.000000,15213387.000000
13231049.000000,15306762.000000
13231046.000000,15306767.000000
13228723.000000,15311749.000000
13097398.000000,15499300.000000
12935500.000000,15661198.000000
12930992.000000,15664355.000000
12930989.000000,15664357.000000
12889658.000000,15693297.000000
12747949.000000,15792523.000000
12742967.000000,15794846.000000
12742962.000000,15794849.000000
12708151.000000,15811081.000000
12654866.000000,15857998.000000
12635405.000000,15926275.000000
12655947.000000,15994235.000000
12708151.000000,16039471.000000
12742711.000000,16055586.000000
12752206.000000,16061069.000000
12804248.000000,16097509.000000
12812624.000000,16107988.000000
12805556.000000,16121434.000000
12104012.000000,16822978.000000
12090068.000000,16830592.000000
12088235.000000,16830461.000000
12081620.000000,16826210.000000
11376123.000000,16120713.000000
11369693.000000,16108938.000000
11378989.000000,16096923.000000
11430194.000000,16061069.000000
11439689.000000,16055586.000000
11474249.000000,16039471.000000
11527534.000000,15992554.000000
11546995.000000,15924277.000000
11526453.000000,15856317.000000
11474249.000000,15811081.000000
11439438.000000,15794849.000000
11439433.000000,15794846.000000
11434451.000000,15792523.000000
11282731.000000,15686287.000000
11210460.000000,15663500.000000
10893475.000000,15663500.000000
10825354.000000,15683502.000000
10792649.000000,15713935.000000
10714461.000000,15818261.000000
10597905.000000,15905615.000000
10461516.000000,15956745.000000
10399334.000000,15963500.000000
10354556.000000,15963500.000000
10286435.000000,15983502.000000
10239942.000000,16037158.000000
10229838.000000,16107432.000000
10235691.000000,16120952.000000
10237844.000000,16141753.000000
10229655.000000,16157334.000000
9564011.000000,16822979.000000
9550068.000000,16830592.000000
9548234.000000,16830461.000000
9541620.000000,16826210.000000
8872020.000000,16156609.000000
8864409.000000,16142671.000000
8865817.000000,16122987.000000
8874620.000000,16100483.000000
8860632.000000,16030878.000000
8811234.000000,15979885.000000
8749100.000000,15963500.000000
8703066.000000,15963500.000000
8640884.000000,15956745.000000
8504495.000000,15905615.000000
8387939.000000,15818261.000000
8309751.000000,15713935.000000
8252892.000000,15671420.000000
8208925.000000,15663500.000000
8145700.000000,15663500.000000
8077579.000000,15683502.000000
8031086.000000,15737158.000000
8019700.000000,15789500.000000
8019700.000000,16401433.000000
8042487.000000,16473703.000000
8105256.000000,16563347.000000
8107577.000000,16568325.000000
8107579.000000,16568328.000000
8167281.000000,16696360.000000
8214198.000000,16749645.000000
8282476.000000,16769106.000000
8350436.000000,16748564.000000
8395671.000000,16696360.000000
8455254.000000,16568583.000000
8460734.000000,16559093.000000
8489611.000000,16517851.000000
8500087.000000,16509477.000000
8513534.000000,16516545.000000
9179179.000000,17182189.000000
9186792.000000,17196132.000000
9186661.000000,17197966.000000
9182410.000000,17204580.000000
8512809.000000,17874180.000000
8501039.000000,17880607.000000
8489024.000000,17871311.000000
8460734.000000,17830907.000000
8455254.000000,17821417.000000
8395671.000000,17693640.000000
8348754.000000,17640355.000000
8280476.000000,17620894.000000
8212516.000000,17641436.000000
8167281.000000,17693640.000000
8107582.000000,17821666.000000
8107579.000000,17821671.000000
8105256.000000,17826653.000000
8102100.000000,17831160.000000
8102099.000000,17831162.000000
7991077.000000,17989717.000000
7978949.000000,18007038.000000
7823238.000000,18162749.000000
7818729.000000,18165906.000000
7818727.000000,18165908.000000
7765040.000000,18203500.000000
7642854.000000,18289056.000000
7637872.000000,18291379.000000
7637867.000000,18291382.000000
7569587.000000,18323221.000000
7516302.000000,18370138.000000
7496841.000000,18438416.000000
7517383.000000,18506376.000000
7569588.000000,18551611.000000
7662958.000000,18595149.000000
7662964.000000,18595153.000000
7667949.000000,18597477.000000
7748663.000000,18653994.000000
7819669.000000,18703713.000000
7891940.000000,18726500.000000
8511723.000000,18726500.000000
8579844.000000,18706498.000000
8589815.000000,18699382.000000
8765023.000000,18561011.000000
8765028.000000,18561008.000000
8769077.000000,18557810.000000
8773592.000000,18555317.000000
8773605.000000,18555309.000000
8891447.000000,18490257.000000
8941417.000000,18439825.000000
8956189.000000,18370382.000000
8931073.000000,18303977.000000
8902823.000000,18276735.000000
8874051.000000,18256589.000000
8865677.000000,18246112.000000
8872743.000000,18232668.000000
9538389.000000,17567021.000000
9552332.000000,17559408.000000
9554166.000000,17559539.000000
9560780.000000,17563790.000000
10230380.000000,18233391.000000
10236807.000000,18245161.000000
10227513.000000,18257175.000000
10199458.000000,18276819.000000
10155130.000000,18332276.000000
10147821.000000,18402895.000000
10179851.000000,18466256.000000
10213548.000000,18491795.000000
10304328.000000,18539052.000000
10308461.000000,18542155.000000
10308464.000000,18542157.000000
10458052.000000,18654471.000000
10489545.000000,18678117.000000
10500513.000000,18689595.000000
10507413.000000,18696815.000000
10568937.000000,18732245.000000
10639849.000000,18728788.000000
10697636.000000,18687543.000000
10716489.000000,18653994.000000
10737876.000000,18596946.000000
10746414.000000,18581351.000000
10822915.000000,18479276.000000
10835476.000000,18466715.000000
10937551.000000,18390214.000000
10953146.000000,18381676.000000
11073594.000000,18336522.000000
11088849.000000,18332895.000000
11139714.000000,18327369.000000
11146528.000000,18327000.000000
11270013.000000,18327000.000000
11338134.000000,18306998.000000
11362079.000000,18280867.000000
11363311.000000,18282099.000000
12078388.000000,17567022.000000
12092332.000000,17559408.000000
12094165.000000,17559539.000000
12100780.000000,17563790.000000
12819089.000000,18282099.000000
12820882.000000,18280306.000000
12852169.000000,18311590.000000
12912551.000000,18327001.000000
13035869.000000,18327001.000000
13042690.000000,18327371.000000
13093552.000000,18332895.000000
13108804.000000,18336521.000000
13229254.000000,18381676.000000
13244849.000000,18390214.000000
13346924.000000,18466715.000000
13359485.000000,18479276.000000
13435986.000000,18581351.000000
13444524.000000,18596946.000000
13489678.000000,18717394.000000
13493305.000000,18732649.000000
13498831.000000,18783514.000000
13499200.000000,18790328.000000
13499200.000000,19462885.000000
13494725.000000,19478124.000000
13493335.000000,19479329.000000
13485652.000000,19481000.000000
11963200.000000,19481000.000000
11895079.000000,19501002.000000
11848586.000000,19554658.000000
11837200.000000,19607000.000000
11837200.000000,19863000.000000
11857202.000000,19931121.000000
11910858.000000,19977614.000000
11963200.000000,19989000.000000
13481084.000000,19989000.000000
13496323.000000,19993475.000000
13497528.000000,19994865.000000
13499199.000000,20002548.000000
13499199.000000,20679669.000000
13498829.000000,20686490.000000
13493305.000000,20737352.000000
13489679.000000,20752604.000000
13444524.000000,20873054.000000
13435986.000000,20888649.000000
13359485.000000,20990724.000000
13346924.000000,21003285.000000
13244846.000000,21079788.000000
13231620.000000,21087029.000000
13181474.000000,21137287.000000
13166129.000000,21197549.000000
13166129.000000,24815500.000000
13186131.000000,24883621.000000
13239787.000000,24930114.000000
13292129.000000,24941500.000000
31141700.000000,24941500.000000
31209821.000000,24921498.000000
31256314.000000,24867842.000000
31267700.000000,24815500.000000
31267700.000000,5262070.000000
31247698.000000,5193949.000000
31194042.000000,5147456.000000
31123768.000000,5137352.000000
31059188.000000,5166846.000000
31034267.000000,5196235.000000
30973506.000000,5295388.000000
30967423.000000,5303699.000000
30827987.000000,5464667.000000
30820620.000000,5471883.000000
30656766.000000,5607916.000000
30648319.000000,5613831.000000
30464444.000000,5721279.000000
30455158.000000,5725729.000000
30256199.000000,5801703.000000
30246301.000000,5804579.000000
30142950.000000,5825606.000000
30128901.000000,5824410.000000
30125200.000000,5814065.000000
30125200.000000,4367000.000000
30105198.000000,4298879.000000
30051542.000000,4252386.000000
29999200.000000,4241000.000000
29743200.000000,4241000.000000
29675079.000000,4261002.000000
29628586.000000,4314658.000000
29617200.000000,4367000.000000
29617200.000000,5813517.000000
29613136.000000,5827359.000000
29599722.000000,5829393.000000
29593016.000000,5828534.000000
29582938.000000,5826392.000000
29378945.000000,5765191.000000
29369358.000000,5761433.000000
29178105.000000,5667739.000000
29169255.000000,5662464.000000
28995868.000000,5538788.000000
28988001.000000,5532141.000000
28955357.000000,5499610.000000
28892986.000000,5465693.000000
28822179.000000,5470881.000000
28765460.000000,5513470.000000
28662078.000000,5651915.000000
28658769.000000,5655195.000000
28658764.000000,5655201.000000
28486072.000000,5826392.000000
28476457.000000,5835923.000000
28472695.000000,5838681.000000
28472692.000000,5838684.000000
28328242.000000,5944599.000000
28265676.000000,5990474.000000
28261533.000000,5992654.000000
28261531.000000,5992655.000000
28038516.000000,6109989.000000
28038511.000000,6109991.000000
28034366.000000,6112172.000000
27913846.000000,6154260.000000
27796567.000000,6195216.000000
27787610.000000,6198344.000000
27783017.000000,6199216.000000
27535415.000000,6246224.000000
27535412.000000,6246224.000000
27530826.000000,6247095.000000
27400242.000000,6252226.000000
27274325.000000,6257174.000000
27274319.000000,6257174.000000
27269657.000000,6257357.000000
27190223.000000,6248657.000000
27014493.000000,6229412.000000
27014488.000000,6229411.000000
27009840.000000,6228902.000000
26897084.000000,6199216.000000
26761606.000000,6163548.000000
26761604.000000,6163547.000000
26757083.000000,6162357.000000
26516938.000000,6059182.000000
26331773.000000,5944599.000000
26263321.000000,5925762.000000
26195551.000000,5946923.000000
26149980.000000,6001364.000000
26141077.000000,6071800.000000
26142888.000000,6080893.000000
26143305.000000,6082648.000000
26148831.000000,6133514.000000
26149200.000000,6140328.000000
26149200.000000,6762885.000000
26144725.000000,6778124.000000
26143335.000000,6779329.000000
26135652.000000,6781000.000000
23451316.000000,6781000.000000
23436077.000000,6776525.000000
23434872.000000,6775135.000000
23433201.000000,6767452.000000
23433201.000000,6140331.000000
23433571.000000,6133510.000000
23439095.000000,6082648.000000
23442721.000000,6067396.000000
23487876.000000,5946946.000000
23496414.000000,5931351.000000
23572915.000000,5829276.000000
23585476.000000,5816715.000000
23687551.000000,5740214.000000
23703146.000000,5731676.000000
23813387.000000,5690348.000000
23870151.000000,5647706.000000
23894851.000000,5581145.000000
23879643.000000,5511796.000000
23858096.000000,5483115.000000
23756770.000000,5382144.000000
23756760.000000,5382132.000000
23753104.000000,5378489.000000
23693606.000000,5295689.000000
23625765.000000,5201277.000000
23622747.000000,5197077.000000
23602572.000000,5156257.000000
23526064.000000,5001453.000000
23526063.000000,5001451.000000
23523770.000000,4996811.000000
23458830.000000,4783069.000000
23429671.000000,4561590.000000
23429589.000000,4558240.000000
23428126.000000,4498365.000000
23428126.000000,4498361.000000
23428044.000000,4495000.000000
23446348.000000,4272361.000000
23500769.000000,4055702.000000
23589846.000000,3850840.000000
23635068.000000,3780938.000000
23708378.000000,3667617.000000
23708380.000000,3667614.000000
23711186.000000,3663277.000000
23861530.000000,3498051.000000
23865581.000000,3494852.000000
23865585.000000,3494848.000000
24032786.000000,3362800.000000
24032790.000000,3362798.000000
24036841.000000,3359598.000000
24078147.000000,3336796.000000
24128116.000000,3286364.000000
24142888.000000,3216921.000000
24117772.000000,3150516.000000
24090420.000000,3123909.000000
24004924.000000,3062925.000000
23911340.000000,2996173.000000
23908314.000000,2993157.000000
23843612.000000,2964570.000000
23827224.000000,2963500.000000
20668807.000000,2963500.000000
Z" /> 
</g>
</g>
</g>
<g style="fill:#FFFFFF; fill-opacity:1.0; 
stroke:#FFFFFF; stroke-width:1.000000; stroke-opacity:1; 
stroke-linecap:round; stroke-linejoin:round;">
<circle cx="19711200.000000" cy="19735000.000000" r="500000.000000" /> 
</g>
<g style="fill:#FFFFFF; fill-opacity:1.0; 
stroke:#FFFFFF; stroke-width:21200.000000; stroke-opacity:1; 
stroke-linecap:round; stroke-linejoin:round;">
</g>
<g style="fill:#FFFFFF; fill-opacity:1.0; 
stroke:#FFFFFF; stroke-width:1.000000; stroke-opacity:1; 
stroke-linecap:round; stroke-linejoin:round;">
<circle cx="19711200.000000" cy="12115000.000000" r="500000.000000" /> 
</g>
<g style="fill:#FFFFFF; fill-opacity:1.0; 
stroke:#FFFFFF; stroke-width:21200.000000; stroke-opacity:1; 
stroke-linecap:round; stroke-linejoin:round;">
</g>
<g style="fill:#FFFFFF; fill-opacity:1.0; 
stroke:#FFFFFF; stroke-width:1.000000; stroke-opacity:1; 
stroke-linecap:round; stroke-linejoin:round;">
<circle cx="27331200.000000" cy="9575000.000000" r="500000.000000" /> 
</g>
<g style="fill:#FFFFFF; fill-opacity:1.0; 
stroke:#FFFFFF; stroke-width:21200.000000; stroke-opacity:1; 
stroke-linecap:round; stroke-linejoin:round;">
</g>
<g style="fill:#FFFFFF; fill-opacity:1.0; 
stroke:#FFFFFF; stroke-width:1.000000; stroke-opacity:1; 
stroke-linecap:round; stroke-linejoin:round;">
<circle cx="27331200.000000" cy="4495000.000000" r="500000.000000" /> 
</g>
<g style="fill:#FFFFFF; fill-opacity:1.0; 
stroke:#FFFFFF; stroke-width:21200.000000; stroke-opacity:1; 
stroke-linecap:round; stroke-linejoin:round;">
</g>
<g style="fill:#FFFFFF; fill-opacity:1.0; 
stroke:#FFFFFF; stroke-width:1.000000; stroke-opacity:1; 
stroke-linecap:round; stroke-linejoin:round;">
<circle cx="24791200.000000" cy="7035000.000000" r="500000.000000" /> 
</g>
<g style="fill:#FFFFFF; fill-opacity:1.0; 
stroke:#FFFFFF; stroke-width:21200.000000; stroke-opacity:1; 
stroke-linecap:round; stroke-linejoin:round;">
</g>
<g style="fill:#FFFFFF; fill-opacity:1.0; 
stroke:#FFFFFF; stroke-width:1.000000; stroke-opacity:1; 
stroke-linecap:round; stroke-linejoin:round;">
<circle cx="24791200.000000" cy="4495000.000000" r="500000.000000" /> 
</g>
<g style="fill:#FFFFFF; fill-opacity:1.0; 
stroke:#FFFFFF; stroke-width:21200.000000; stroke-opacity:1; 
stroke-linecap:round; stroke-linejoin:round;">
</g>
<g style="fill:#FFFFFF; fill-opacity:1.0; 
stroke:#FFFFFF; stroke-width:1.000000; stroke-opacity:1; 
stroke-linecap:round; stroke-linejoin:round;">
<circle cx="24791200.000000" cy="1955000.000000" r="500000.000000" /> 
</g>
<g style="fill:#FFFFFF; fill-opacity:1.0; 
stroke:#FFFFFF; stroke-width:21200.000000; stroke-opacity:1; 
stroke-linecap:round; stroke-linejoin:round;">
</g>
<g style="fill:#FFFFFF; fill-opacity:1.0; 
stroke:#FFFFFF; stroke-width:1.000000; stroke-opacity:1; 
stroke-linecap:round; stroke-linejoin:round;">
<circle cx="22251200.000000" cy="17195000.000000" r="400000.000000" /> 
</g>
<g style="fill:#FFFFFF; fill-opacity:1.0; 
stroke:#FFFFFF; stroke-width:21200.000000; stroke-opacity:1; 
stroke-linecap:round; stroke-linejoin:round;">
</g>
<g style="fill:#FFFFFF; fill-opacity:1.0; 
stroke:#FFFFFF; stroke-width:1.000000; stroke-opacity:1; 
stroke-linecap:round; stroke-linejoin:round;">
<circle cx="24791200.000000" cy="17195000.000000" r="400000.000000" /> 
</g>
<g style="fill:#FFFFFF; fill-opacity:1.0; 
stroke:#FFFFFF; stroke-width:21200.000000; stroke-opacity:1; 
stroke-linecap:round; stroke-linejoin:round;">
</g>
<g style="fill:#FFFFFF; fill-opacity:1.0; 
stroke:#FFFFFF; stroke-width:1.000000; stroke-opacity:1; 
stroke-linecap:round; stroke-linejoin:round;">
<circle cx="9551200.000000" cy="7035000.000000" r="400000.000000" /> 
</g>
<g style="fill:#FFFFFF; fill-opacity:1.0; 
stroke:#FFFFFF; stroke-width:21200.000000; stroke-opacity:1; 
stroke-linecap:round; stroke-linejoin:round;">
</g>
<g style="fill:#FFFFFF; fill-opacity:1.0; 
stroke:#FFFFFF; stroke-width:1.000000; stroke-opacity:1; 
stroke-linecap:round; stroke-linejoin:round;">
<circle cx="12091200.000000" cy="7035000.000000" r="400000.000000" /> 
</g>
<g style="fill:#FFFFFF; fill-opacity:1.0; 
stroke:#FFFFFF; stroke-width:21200.000000; stroke-opacity:1; 
stroke-linecap:round; stroke-linejoin:round;">
</g>
<g style="fill:#FFFFFF; fill-opacity:1.0; 
stroke:#FFFFFF; stroke-width:1.000000; stroke-opacity:1; 
stroke-linecap:round; stroke-linejoin:round;">
<circle cx="12091200.000000" cy="9575000.000000" r="400000.000000" /> 
</g>
<g style="fill:#FFFFFF; fill-opacity:1.0; 
stroke:#FFFFFF; stroke-width:21200.000000; stroke-opacity:1; 
stroke-linecap:round; stroke-linejoin:round;">
</g>
<g style="fill:#FFFFFF; fill-opacity:1.0; 
stroke:#FFFFFF; stroke-width:1.000000; stroke-opacity:1; 
stroke-linecap:round; stroke-linejoin:round;">
<circle cx="9551200.000000" cy="9575000.000000" r="400000.000000" /> 
</g>
<g style="fill:#FFFFFF; fill-opacity:1.0; 
stroke:#FFFFFF; stroke-width:21200.000000; stroke-opacity:1; 
stroke-linecap:round; stroke-linejoin:round;">
</g>
<g style="fill:#FFFFFF; fill-opacity:1.0; 
stroke:#FFFFFF; stroke-width:1.000000; stroke-opacity:1; 
stroke-linecap:round; stroke-linejoin:round;">
<circle cx="12091200.000000" cy="17195000.000000" r="400000.000000" /> 
</g>
<g style="fill:#FFFFFF; fill-opacity:1.0; 
stroke:#FFFFFF; stroke-width:21200.000000; stroke-opacity:1; 
stroke-linecap:round; stroke-linejoin:round;">
</g>
<g style="fill:#FFFFFF; fill-opacity:1.0; 
stroke:#FFFFFF; stroke-width:1.000000; stroke-opacity:1; 
stroke-linecap:round; stroke-linejoin:round;">
<circle cx="12091200.000000" cy="14655000.000000" r="400000.000000" /> 
</g>
<g style="fill:#FFFFFF; fill-opacity:1.0; 
stroke:#FFFFFF; stroke-width:21200.000000; stroke-opacity:1; 
stroke-linecap:round; stroke-linejoin:round;">
</g>
<g style="fill:#FFFFFF; fill-opacity:1.0; 
stroke:#FFFFFF; stroke-width:1.000000; stroke-opacity:1; 
stroke-linecap:round; stroke-linejoin:round;">
<circle cx="29871200.000000" cy="1955000.000000" r="500000.000000" /> 
</g>
<g style="fill:#FFFFFF; fill-opacity:1.0; 
stroke:#FFFFFF; stroke-width:21200.000000; stroke-opacity:1; 
stroke-linecap:round; stroke-linejoin:round;">
</g>
<g style="fill:#FFFFFF; fill-opacity:1.0; 
stroke:#FFFFFF; stroke-width:1.000000; stroke-opacity:1; 
stroke-linecap:round; stroke-linejoin:round;">
<circle cx="29871200.000000" cy="4495000.000000" r="500000.000000" /> 
</g>
<g style="fill:#FFFFFF; fill-opacity:1.0; 
stroke:#FFFFFF; stroke-width:21200.000000; stroke-opacity:1; 
stroke-linecap:round; stroke-linejoin:round;">
</g>
<g style="fill:#FFFFFF; fill-opacity:1.0; 
stroke:#FFFFFF; stroke-width:1.000000; stroke-opacity:1; 
stroke-linecap:round; stroke-linejoin:round;">
<circle cx="4471200.000000" cy="17195000.000000" r="400000.000000" /> 
</g>
<g style="fill:#FFFFFF; fill-opacity:1.0; 
stroke:#FFFFFF; stroke-width:21200.000000; stroke-opacity:1; 
stroke-linecap:round; stroke-linejoin:round;">
</g>
<g style="fill:#FFFFFF; fill-opacity:1.0; 
stroke:#FFFFFF; stroke-width:1.000000; stroke-opacity:1; 
stroke-linecap:round; stroke-linejoin:round;">
<circle cx="7011200.000000" cy="17195000.000000" r="400000.000000" /> 
</g>
<g style="fill:#FFFFFF; fill-opacity:1.0; 
stroke:#FFFFFF; stroke-width:21200.000000; stroke-opacity:1; 
stroke-linecap:round; stroke-linejoin:round;">
</g>
<g style="fill:#FFFFFF; fill-opacity:1.0; 
stroke:#FFFFFF; stroke-width:1.000000; stroke-opacity:1; 
stroke-linecap:round; stroke-linejoin:round;">
<circle cx="9551200.000000" cy="17195000.000000" r="400000.000000" /> 
</g>
<g style="fill:#FFFFFF; fill-opacity:1.0; 
stroke:#FFFFFF; stroke-width:21200.000000; stroke-opacity:1; 
stroke-linecap:round; stroke-linejoin:round;">
</g>
<g style="fill:#FFFFFF; fill-opacity:1.0; 
stroke:#FFFFFF; stroke-width:1.000000; stroke-opacity:1; 
stroke-linecap:round; stroke-linejoin:round;">
<circle cx="7011200.000000" cy="7035000.000000" r="400000.000000" /> 
</g>
<g style="fill:#FFFFFF; fill-opacity:1.0; 
stroke:#FFFFFF; stroke-width:21200.000000; stroke-opacity:1; 
stroke-linecap:round; stroke-linejoin:round;">
</g>
<g style="fill:#FFFFFF; fill-opacity:1.0; 
stroke:#FFFFFF; stroke-width:1.000000; stroke-opacity:1; 
stroke-linecap:round; stroke-linejoin:round;">
<circle cx="7011200.000000" cy="9575000.000000" r="400000.000000" /> 
</g>
<g style="fill:#FFFFFF; fill-opacity:1.0; 
stroke:#FFFFFF; stroke-width:21200.000000; stroke-opacity:1; 
stroke-linecap:round; stroke-linejoin:round;">
</g>
<g style="fill:#FFFFFF; fill-opacity:1.0; 
stroke:#FFFFFF; stroke-width:1.000000; stroke-opacity:1; 
stroke-linecap:round; stroke-linejoin:round;">
<circle cx="7011200.000000" cy="12115000.000000" r="400000.000000" /> 
</g>
<g style="fill:#FFFFFF; fill-opacity:1.0; 
stroke:#FFFFFF; stroke-width:21200.000000; stroke-opacity:1; 
stroke-linecap:round; stroke-linejoin:round;">
</g>
<g style="fill:#FFFFFF; fill-opacity:1.0; 
stroke:#FFFFFF; stroke-width:1.000000; stroke-opacity:1; 
stroke-linecap:round; stroke-linejoin:round;">
<circle cx="17171200.000000" cy="14655000.000000" r="400000.000000" /> 
</g>
<g style="fill:#FFFFFF; fill-opacity:1.0; 
stroke:#FFFFFF; stroke-width:21200.000000; stroke-opacity:1; 
stroke-linecap:round; stroke-linejoin:round;">
</g>
<g style="fill:#FFFFFF; fill-opacity:1.0; 
stroke:#FFFFFF; stroke-width:1.000000; stroke-opacity:1; 
stroke-linecap:round; stroke-linejoin:round;">
<circle cx="17171200.000000" cy="12115000.000000" r="400000.000000" /> 
</g>
<g style="fill:#FFFFFF; fill-opacity:1.0; 
stroke:#FFFFFF; stroke-width:21200.000000; stroke-opacity:1; 
stroke-linecap:round; stroke-linejoin:round;">
</g>
<g style="fill:#FFFFFF; fill-opacity:1.0; 
stroke:#FFFFFF; stroke-width:1.000000; stroke-opacity:1; 
stroke-linecap:round; stroke-linejoin:round;">
<circle cx="24791200.000000" cy="19735000.000000" r="400000.000000" /> 
</g>
<g style="fill:#FFFFFF; fill-opacity:1.0; 
stroke:#FFFFFF; stroke-width:21200.000000; stroke-opacity:1; 
stroke-linecap:round; stroke-linejoin:round;">
</g>
<g style="fill:#FFFFFF; fill-opacity:1.0; 
stroke:#FFFFFF; stroke-width:1.000000; stroke-opacity:1; 
stroke-linecap:round; stroke-linejoin:round;">
<circle cx="22251200.000000" cy="19735000.000000" r="400000.000000" /> 
</g>
<g style="fill:#FFFFFF; fill-opacity:1.0; 
stroke:#FFFFFF; stroke-width:21200.000000; stroke-opacity:1; 
stroke-linecap:round; stroke-linejoin:round;">
</g>
<g style="fill:#FFFFFF; fill-opacity:1.0; 
stroke:#FFFFFF; stroke-width:1.000000; stroke-opacity:1; 
stroke-linecap:round; stroke-linejoin:round;">
<circle cx="4471200.000000" cy="4495000.000000" r="400000.000000" /> 
</g>
<g style="fill:#FFFFFF; fill-opacity:1.0; 
stroke:#FFFFFF; stroke-width:21200.000000; stroke-opacity:1; 
stroke-linecap:round; stroke-linejoin:round;">
</g>
<g style="fill:#FFFFFF; fill-opacity:1.0; 
stroke:#FFFFFF; stroke-width:1.000000; stroke-opacity:1; 
stroke-linecap:round; stroke-linejoin:round;">
<circle cx="4471200.000000" cy="1955000.000000" r="400000.000000" /> 
</g>
<g style="fill:#FFFFFF; fill-opacity:1.0; 
stroke:#FFFFFF; stroke-width:21200.000000; stroke-opacity:1; 
stroke-linecap:round; stroke-linejoin:round;">
</g>
<g style="fill:#FFFFFF; fill-opacity:1.0; 
stroke:#FFFFFF; stroke-width:1.000000; stroke-opacity:1; 
stroke-linecap:round; stroke-linejoin:round;">
<circle cx="19711200.000000" cy="7035000.000000" r="500000.000000" /> 
</g>
<g style="fill:#FFFFFF; fill-opacity:1.0; 
stroke:#FFFFFF; stroke-width:21200.000000; stroke-opacity:1; 
stroke-linecap:round; stroke-linejoin:round;">
</g>
<g style="fill:#FFFFFF; fill-opacity:1.0; 
stroke:#FFFFFF; stroke-width:1.000000; stroke-opacity:1; 
stroke-linecap:round; stroke-linejoin:round;">
<circle cx="19711200.000000" cy="4495000.000000" r="500000.000000" /> 
</g>
<g style="fill:#FFFFFF; fill-opacity:1.0; 
stroke:#FFFFFF; stroke-width:21200.000000; stroke-opacity:1; 
stroke-linecap:round; stroke-linejoin:round;">
</g>
<g style="fill:#FFFFFF; fill-opacity:1.0; 
stroke:#FFFFFF; stroke-width:1.000000; stroke-opacity:1; 
stroke-linecap:round; stroke-linejoin:round;">
<circle cx="19711200.000000" cy="1955000.000000" r="500000.000000" /> 
</g>
<g style="fill:#FFFFFF; fill-opacity:1.0; 
stroke:#FFFFFF; stroke-width:21200.000000; stroke-opacity:1; 
stroke-linecap:round; stroke-linejoin:round;">
</g>
<g style="fill:#FFFFFF; fill-opacity:1.0; 
stroke:#FFFFFF; stroke-width:1.000000; stroke-opacity:1; 
stroke-linecap:round; stroke-linejoin:round;">
<circle cx="7011200.000000" cy="19735000.000000" r="400000.000000" /> 
</g>
<g style="fill:#FFFFFF; fill-opacity:1.0; 
stroke:#FFFFFF; stroke-width:21200.000000; stroke-opacity:1; 
stroke-linecap:round; stroke-linejoin:round;">
</g>
<g style="fill:#FFFFFF; fill-opacity:1.0; 
stroke:#FFFFFF; stroke-width:1.000000; stroke-opacity:1; 
stroke-linecap:round; stroke-linejoin:round;">
<circle cx="4471200.000000" cy="19735000.000000" r="400000.000000" /> 
</g>
<g style="fill:#FFFFFF; fill-opacity:1.0; 
stroke:#FFFFFF; stroke-width:21200.000000; stroke-opacity:1; 
stroke-linecap:round; stroke-linejoin:round;">
</g>
<g style="fill:#FFFFFF; fill-opacity:1.0; 
stroke:#FFFFFF; stroke-width:1.000000; stroke-opacity:1; 
stroke-linecap:round; stroke-linejoin:round;">
<circle cx="9551200.000000" cy="14655000.000000" r="400000.000000" /> 
</g>
<g style="fill:#FFFFFF; fill-opacity:1.0; 
stroke:#FFFFFF; stroke-width:21200.000000; stroke-opacity:1; 
stroke-linecap:round; stroke-linejoin:round;">
</g>
<g style="fill:#FFFFFF; fill-opacity:1.0; 
stroke:#FFFFFF; stroke-width:1.000000; stroke-opacity:1; 
stroke-linecap:round; stroke-linejoin:round;">
<circle cx="9551200.000000" cy="12115000.000000" r="400000.000000" /> 
</g>
<g style="fill:#FFFFFF; fill-opacity:1.0; 
stroke:#FFFFFF; stroke-width:21200.000000; stroke-opacity:1; 
stroke-linecap:round; stroke-linejoin:round;">
</g>
<g style="fill:#FFFFFF; fill-opacity:1.0; 
stroke:#FFFFFF; stroke-width:1.000000; stroke-opacity:1; 
stroke-linecap:round; stroke-linejoin:round;">
<circle cx="12091200.000000" cy="19735000.000000" r="450000.000000" /> 
</g>
<g style="fill:#FFFFFF; fill-opacity:1.0; 
stroke:#FFFFFF; stroke-width:21200.000000; stroke-opacity:1; 
stroke-linecap:round; stroke-linejoin:round;">
</g>
<g style="fill:#FFFFFF; fill-opacity:1.0; 
stroke:#FFFFFF; stroke-width:1.000000; stroke-opacity:1; 
stroke-linecap:round; stroke-linejoin:round;">
<circle cx="9551200.000000" cy="19735000.000000" r="450000.000000" /> 
</g>
<g style="fill:#FFFFFF; fill-opacity:1.0; 
stroke:#FFFFFF; stroke-width:21200.000000; stroke-opacity:1; 
stroke-linecap:round; stroke-linejoin:round;">
</g>
<g style="fill:#FFFFFF; fill-opacity:1.0; 
stroke:#FFFFFF; stroke-width:1.000000; stroke-opacity:1; 
stroke-linecap:round; stroke-linejoin:round;">
<circle cx="14631200.000000" cy="9575000.000000" r="400000.000000" /> 
</g>
<g style="fill:#FFFFFF; fill-opacity:1.0; 
stroke:#FFFFFF; stroke-width:21200.000000; stroke-opacity:1; 
stroke-linecap:round; stroke-linejoin:round;">
</g>
<g style="fill:#FFFFFF; fill-opacity:1.0; 
stroke:#FFFFFF; stroke-width:1.000000; stroke-opacity:1; 
stroke-linecap:round; stroke-linejoin:round;">
<circle cx="14631200.000000" cy="12115000.000000" r="400000.000000" /> 
</g>
<g style="fill:#FFFFFF; fill-opacity:1.0; 
stroke:#FFFFFF; stroke-width:21200.000000; stroke-opacity:1; 
stroke-linecap:round; stroke-linejoin:round;">
</g>
<g style="fill:#FFFFFF; fill-opacity:1.0; 
stroke:#FFFFFF; stroke-width:1.000000; stroke-opacity:1; 
stroke-linecap:round; stroke-linejoin:round;">
<circle cx="14631200.000000" cy="14655000.000000" r="400000.000000" /> 
</g>
<g style="fill:#FFFFFF; fill-opacity:1.0; 
stroke:#FFFFFF; stroke-width:21200.000000; stroke-opacity:1; 
stroke-linecap:round; stroke-linejoin:round;">
</g>
<g style="fill:#FFFFFF; fill-opacity:1.0; 
stroke:#FFFFFF; stroke-width:1.000000; stroke-opacity:1; 
stroke-linecap:round; stroke-linejoin:round;">
<circle cx="22251200.000000" cy="14655000.000000" r="400000.000000" /> 
</g>
<g style="fill:#FFFFFF; fill-opacity:1.0; 
stroke:#FFFFFF; stroke-width:21200.000000; stroke-opacity:1; 
stroke-linecap:round; stroke-linejoin:round;">
</g>
<g style="fill:#FFFFFF; fill-opacity:1.0; 
stroke:#FFFFFF; stroke-width:1.000000; stroke-opacity:1; 
stroke-linecap:round; stroke-linejoin:round;">
<circle cx="24791200.000000" cy="14655000.000000" r="400000.000000" /> 
</g>
<g style="fill:#FFFFFF; fill-opacity:1.0; 
stroke:#FFFFFF; stroke-width:21200.000000; stroke-opacity:1; 
stroke-linecap:round; stroke-linejoin:round;">
</g>
<g style="fill:#FFFFFF; fill-opacity:1.0; 
stroke:#FFFFFF; stroke-width:1.000000; stroke-opacity:1; 
stroke-linecap:round; stroke-linejoin:round;">
<circle cx="12091200.000000" cy="4495000.000000" r="400000.000000" /> 
</g>
<g style="fill:#FFFFFF; fill-opacity:1.0; 
stroke:#FFFFFF; stroke-width:21200.000000; stroke-opacity:1; 
stroke-linecap:round; stroke-linejoin:round;">
</g>
<g style="fill:#FFFFFF; fill-opacity:1.0; 
stroke:#FFFFFF; stroke-width:1.000000; stroke-opacity:1; 
stroke-linecap:round; stroke-linejoin:round;">
<circle cx="12091200.000000" cy="1955000.000000" r="400000.000000" /> 
</g>
<g style="fill:#FFFFFF; fill-opacity:1.0; 
stroke:#FFFFFF; stroke-width:21200.000000; stroke-opacity:1; 
stroke-linecap:round; stroke-linejoin:round;">
</g>
<g style="fill:#FFFFFF; fill-opacity:1.0; 
stroke:#FFFFFF; stroke-width:1.000000; stroke-opacity:1; 
stroke-linecap:round; stroke-linejoin:round;">
<circle cx="24791200.000000" cy="12115000.000000" r="400000.000000" /> 
</g>
<g style="fill:#FFFFFF; fill-opacity:1.0; 
stroke:#FFFFFF; stroke-width:21200.000000; stroke-opacity:1; 
stroke-linecap:round; stroke-linejoin:round;">
</g>
<g style="fill:#FFFFFF; fill-opacity:1.0; 
stroke:#FFFFFF; stroke-width:1.000000; stroke-opacity:1; 
stroke-linecap:round; stroke-linejoin:round;">
<circle cx="22251200.000000" cy="12115000.000000" r="400000.000000" /> 
</g>
<g style="fill:#FFFFFF; fill-opacity:1.0; 
stroke:#FFFFFF; stroke-width:21200.000000; stroke-opacity:1; 
stroke-linecap:round; stroke-linejoin:round;">
</g>
<g style="fill:#FFFFFF; fill-opacity:1.0; 
stroke:#FFFFFF; stroke-width:1.000000; stroke-opacity:1; 
stroke-linecap:round; stroke-linejoin:round;">
<circle cx="14631200.000000" cy="4495000.000000" r="400000.000000" /> 
</g>
<g style="fill:#FFFFFF; fill-opacity:1.0; 
stroke:#FFFFFF; stroke-width:21200.000000; stroke-opacity:1; 
stroke-linecap:round; stroke-linejoin:round;">
</g>
<g style="fill:#FFFFFF; fill-opacity:1.0; 
stroke:#FFFFFF; stroke-width:1.000000; stroke-opacity:1; 
stroke-linecap:round; stroke-linejoin:round;">
<circle cx="14631200.000000" cy="1955000.000000" r="400000.000000" /> 
</g>
<g style="fill:#FFFFFF; fill-opacity:1.0; 
stroke:#FFFFFF; stroke-width:21200.000000; stroke-opacity:1; 
stroke-linecap:round; stroke-linejoin:round;">
</g>
<g style="fill:#000000; fill-opacity:1.0; 
stroke:#000000; stroke-width:21200.000000; stroke-opacity:1; 
stroke-linecap:round; stroke-linejoin:round;">
</g>
<g style="fill:#000000; fill-opacity:1.0; 
stroke:#000000; stroke-width:100000.000000; stroke-opacity:1; 
stroke-linecap:round; stroke-linejoin:round;">
</g>
<g style="fill:#000000; fill-opacity:0.0; 
stroke:#000000; stroke-width:100000.000000; stroke-opacity:1; 
stroke-linecap:round; stroke-linejoin:round;">
<path d="M31776200 50000
L26200 50000
" />
<path d="M26200 50000
L26200 25450000
" />
<path d="M26200 25450000
L31776200 25450000
" />
<path d="M31776200 25450000
L31776200 50000
" />
<g >
</g>
<g >
</g>
<g >
</g>
<g >
</g>
<g >
</g>
<g >
</g>
<g >
</g>
<g >
</g>
<g >
</g>
<g >
</g>
<g >
</g>
<g >
</g>
<g >
</g>
<g >
</g>
<g >
</g>
<g >
</g>
<g >
</g>
<g >
</g>
<g >
</g>
<g >
</g>
<g >
</g>
<g >
</g>
<g >
</g>
</g> 
</svg>
